<svg width="21" height="21" viewBox="0 0 21 21" fill="none" xmlns="http://www.w3.org/2000/svg">
<path d="M15.6563 4.875H12.8438V3.9375C12.8438 3.41953 12.4242 3 11.9063 3H9.09377C8.5758 3 8.15627 3.41953 8.15627 3.9375V4.875H5.34378C4.82581 4.875 4.40628 5.29454 4.40628 5.81251V6.75001C4.40628 7.2675 4.82581 7.68703 5.34284 7.68751H15.6568C16.1743 7.68703 16.5938 7.2675 16.5938 6.75001V5.81249C16.5938 5.29454 16.1742 4.875 15.6563 4.875ZM11.9063 4.875H9.09377V4.40624C9.09377 4.1475 9.30377 3.93748 9.56251 3.93748H11.4375C11.6963 3.93748 11.9063 4.14748 11.9063 4.40624V4.875ZM5.34376 16.125C5.34376 17.1605 6.18328 18 7.21876 18H13.7813C14.8167 18 15.6563 17.1605 15.6563 16.125V8.62499H5.34376V16.125ZM12.375 10.0313C12.375 9.77251 12.585 9.5625 12.8438 9.5625C13.1025 9.5625 13.3125 9.77249 13.3125 10.0313V15.6563C13.3125 15.915 13.1025 16.125 12.8438 16.125C12.585 16.125 12.375 15.915 12.375 15.6563V10.0313ZM10.0313 10.0313C10.0313 9.77251 10.2413 9.5625 10.5 9.5625C10.7588 9.5625 10.9688 9.77249 10.9688 10.0313V15.6563C10.9688 15.915 10.7588 16.125 10.5 16.125C10.2413 16.125 10.0313 15.915 10.0313 15.6563V10.0313ZM7.68751 10.0313C7.68751 9.77251 7.8975 9.5625 8.15627 9.5625C8.41503 9.5625 8.62503 9.77249 8.62503 10.0313V15.6563C8.62503 15.915 8.41503 16.125 8.15627 16.125C7.8975 16.125 7.68751 15.915 7.68751 15.6563V10.0313V10.0313Z" fill="white"/>
</svg>
